<?xml version="1.0" encoding="utf-8"?>
<!-- Generator: Adobe Illustrator 27.5.0, SVG Export Plug-In . SVG Version: 6.00 Build 0)  -->
<svg version="1.1" xmlns="http://www.w3.org/2000/svg" xmlns:xlink="http://www.w3.org/1999/xlink" x="0px" y="0px"
	 viewBox="0 0 2200 2200" style="enable-background:new 0 0 2200 2200;" xml:space="preserve">
<g id="background">
	<rect style="fill:#FFFFFF;" width="2200" height="2200"/>
</g>
<g id="Objects">
	<g>
		<path style="fill:#2F3A49;" d="M1871.115,1871.113c-16.655,16.666-38.482,24.994-60.309,24.994
			c-21.838,0-43.664-8.328-60.32-24.994l-410.499-410.488v-33.685l86.537-86.954h34.092l410.499,410.499
			C1904.436,1783.795,1904.436,1837.802,1871.115,1871.113z"/>
		<polygon style="fill:#C3E2F4;" points="1460.616,1339.986 1339.987,1460.625 1177.922,1298.56 1294.776,1174.146 		"/>
		<circle style="fill:#48A8FF;" cx="909.032" cy="909.031" r="574.618"/>
		<path style="fill:#3D83F4;" d="M1116.941,1173.784c-0.714,51.79-43.11,94.004-94.899,94.484
			c-26.764,0.245-51.011-10.482-68.541-27.947c-2.453-2.442-5.321-4.329-8.456-5.619c-3.114-1.301-6.494-1.983-9.938-1.983
			c-14.406,0-26.071,11.676-26.071,26.081v224.848c-317.348,0-574.621-257.263-574.621-574.611h224.848
			c14.416,0,26.081,11.665,26.081,26.071c0,3.444-0.682,6.824-1.983,9.938c-1.29,3.135-3.178,6.003-5.609,8.456
			c-17.476,17.53-28.203,41.777-27.958,68.541c0.48,51.789,42.694,94.185,94.484,94.899c53.528,0.736,97.16-42.449,97.16-95.806
			c0-26.423-10.684-50.339-27.979-67.677c-4.852-4.862-7.56-11.473-7.56-18.351c0-7.208,2.922-13.723,7.624-18.436
			c4.734-4.724,11.239-7.635,18.447-7.635h177.067v177.057c0,7.208,2.911,13.723,7.635,18.447
			c4.713,4.713,11.228,7.635,18.436,7.635c6.878,0,13.488-2.719,18.351-7.571c17.338-17.285,41.255-27.979,67.677-27.979
			C1074.492,1076.624,1117.677,1120.256,1116.941,1173.784z"/>
		<path style="fill:#3D83F4;" d="M1483.648,909.036H1258.8c-14.405,0-26.081-11.676-26.081-26.081c0-3.444,0.682-6.814,1.983-9.938
			c1.29-3.135,3.177-6.003,5.619-8.456c17.466-17.53,28.193-41.777,27.947-68.541c-0.48-51.79-42.694-94.185-94.484-94.899
			c-53.528-0.736-97.16,42.449-97.16,95.806c0,26.423,10.695,50.339,27.979,67.677c4.852,4.873,7.571,11.484,7.571,18.351
			c0,7.208-2.922,13.723-7.635,18.436c-4.724,4.724-11.239,7.645-18.447,7.645H909.037V731.968c0-7.208-2.922-13.712-7.645-18.447
			c-4.713-4.702-11.228-7.624-18.436-7.624c-6.867,0-13.478,2.708-18.351,7.56c-17.338,17.295-41.255,27.979-67.677,27.979
			c-53.357,0-96.542-43.632-95.806-97.16c0.714-51.789,43.11-94.004,94.899-94.484c26.764-0.245,51.011,10.482,68.541,27.958
			c2.452,2.431,5.321,4.318,8.456,5.609c3.124,1.301,6.494,1.983,9.938,1.983c14.406,0,26.081-11.665,26.081-26.081V334.414
			C1226.385,334.414,1483.648,591.688,1483.648,909.036z"/>
		<path style="fill:#71C2FF;" d="M486.715,775.49c40.213-100.497,119.969-183.088,223.774-244.374
			c8.612-5.085,12.181-15.724,8.391-24.979l-9.017-22.02c-4.749-11.598-18.081-14.9-29.43-9.583
			C630.87,497.751,499.03,581.337,440.24,758.452c-3.959,11.926,1.572,24.935,12.944,30.282h0
			C466.09,794.803,481.416,788.731,486.715,775.49z"/>
		<path style="fill:#71C2FF;" d="M809.735,489.756l-38.471,14.601c-7.915,3.004-16.766-0.977-19.771-8.892l-10.548-27.792
			c-3.004-7.915,0.977-16.767,8.892-19.77l38.471-14.601c7.915-3.004,16.767,0.977,19.771,8.892l10.548,27.792
			C821.631,477.901,817.65,486.752,809.735,489.756z"/>
		<path style="fill:#3B8FE2;" d="M1483.648,909.036c0,317.348-257.263,574.611-574.611,574.611v-88.672
			c258.692-20.942,464.996-227.258,485.949-485.938H1483.648z"/>
		<path style="fill:#326ED8;" d="M909.037,1394.974v88.672c-317.348,0-574.621-257.263-574.621-574.611
			c0-7.421,0.139-14.821,0.427-22.179c0.288,7.432,0.736,14.832,1.344,22.179c22.093,273.022,250.673,487.698,529.39,487.698
			C880.204,1396.733,894.706,1396.136,909.037,1394.974z"/>
		<path style="fill:#326ED8;" d="M1394.986,909.036c1.162-14.331,1.749-28.832,1.749-43.462
			c0-278.716-214.675-507.296-487.698-529.39c-7.347-0.608-14.747-1.056-22.179-1.344c7.357-0.288,14.757-0.427,22.179-0.427
			c317.348,0,574.611,257.273,574.611,574.621H1394.986z"/>
		<path style="fill:#A7D2F2;" d="M909.032,1514.169c-81.679,0-160.932-16.004-235.557-47.567
			c-72.063-30.48-136.776-74.109-192.341-129.674c-55.565-55.565-99.194-120.277-129.674-192.341
			c-31.563-74.624-47.567-153.877-47.567-235.557c0-81.68,16.004-160.932,47.567-235.557
			c30.48-72.063,74.109-136.775,129.674-192.341C536.7,425.569,601.413,381.94,673.476,351.46
			c74.624-31.563,153.877-47.567,235.557-47.567s160.932,16.004,235.557,47.567c72.063,30.48,136.776,74.109,192.341,129.673
			c55.565,55.565,99.194,120.278,129.674,192.341c31.563,74.624,47.567,153.877,47.567,235.557
			c0,81.679-16.004,160.932-47.567,235.557c-30.48,72.063-74.109,136.776-129.674,192.341
			c-55.565,55.565-120.277,99.194-192.341,129.674C1069.965,1498.166,990.712,1514.169,909.032,1514.169z M909.032,364.94
			c-73.465,0-144.717,14.382-211.776,42.745c-64.786,27.402-122.976,66.637-172.954,116.616
			c-49.979,49.978-89.214,108.169-116.616,172.955c-28.364,67.059-42.745,138.31-42.745,211.776s14.381,144.717,42.745,211.776
			c27.402,64.786,66.637,122.976,116.616,172.954c49.978,49.979,108.169,89.214,172.954,116.616
			c67.059,28.364,138.31,42.745,211.776,42.745s144.717-14.381,211.776-42.745c64.786-27.402,122.976-66.637,172.954-116.616
			c49.979-49.978,89.214-108.169,116.616-172.954c28.364-67.059,42.745-138.311,42.745-211.776s-14.381-144.717-42.745-211.776
			c-27.402-64.786-66.637-122.977-116.616-172.955c-49.978-49.978-108.169-89.214-172.954-116.616
			C1053.749,379.322,982.497,364.94,909.032,364.94z"/>
	</g>
</g>
</svg>
